<mxfile host="app.diagrams.net" modified="2023-08-23T04:21:08.571Z" agent="Mozilla/5.0 (Windows NT 10.0; Win64; x64) AppleWebKit/537.36 (KHTML, like Gecko) Chrome/115.0.0.0 Safari/537.36 Edg/115.0.1901.203" etag="huHmdDRn_xu9scuNhUwF" version="21.6.9" type="google">
  <diagram name="Page-1" id="2YBvvXClWsGukQMizWep">
    <mxGraphModel dx="1379" dy="788" grid="0" gridSize="10" guides="0" tooltips="1" connect="1" arrows="1" fold="1" page="1" pageScale="1" pageWidth="850" pageHeight="1100" math="0" shadow="0">
      <root>
        <mxCell id="0" />
        <mxCell id="1" parent="0" />
        <mxCell id="RyUc-nNFsBbxNnoOOYAe-1" value="Actor" style="shape=umlLifeline;perimeter=lifelinePerimeter;whiteSpace=wrap;html=1;container=0;dropTarget=0;collapsible=0;recursiveResize=0;outlineConnect=0;portConstraint=eastwest;newEdgeStyle={&quot;edgeStyle&quot;:&quot;elbowEdgeStyle&quot;,&quot;elbow&quot;:&quot;vertical&quot;,&quot;curved&quot;:0,&quot;rounded&quot;:0};flipH=0;" parent="1" vertex="1">
          <mxGeometry x="61" y="80" width="100" height="1160" as="geometry" />
        </mxCell>
        <mxCell id="RyUc-nNFsBbxNnoOOYAe-2" value="Front" style="shape=umlLifeline;perimeter=lifelinePerimeter;whiteSpace=wrap;html=1;container=0;dropTarget=0;collapsible=0;recursiveResize=0;outlineConnect=0;portConstraint=eastwest;newEdgeStyle={&quot;edgeStyle&quot;:&quot;elbowEdgeStyle&quot;,&quot;elbow&quot;:&quot;vertical&quot;,&quot;curved&quot;:0,&quot;rounded&quot;:0};flipH=0;" parent="1" vertex="1">
          <mxGeometry x="270" y="80" width="100" height="1160" as="geometry" />
        </mxCell>
        <mxCell id="RyUc-nNFsBbxNnoOOYAe-3" value="1. &amp;lt;사진/영상 파일 업로드&amp;gt; 버튼 클릭&amp;nbsp;&lt;br&gt;또는 &amp;lt;드래그앤드롭&amp;gt;" style="html=1;verticalAlign=bottom;endArrow=block;edgeStyle=elbowEdgeStyle;elbow=horizontal;curved=0;rounded=0;" parent="1" edge="1">
          <mxGeometry relative="1" as="geometry">
            <mxPoint x="110.44736842105272" y="178" as="sourcePoint" />
            <Array as="points">
              <mxPoint x="229" y="178" />
            </Array>
            <mxPoint x="319.5000000000002" y="178" as="targetPoint" />
          </mxGeometry>
        </mxCell>
        <mxCell id="RyUc-nNFsBbxNnoOOYAe-4" value="Back" style="shape=umlLifeline;perimeter=lifelinePerimeter;whiteSpace=wrap;html=1;container=0;dropTarget=0;collapsible=0;recursiveResize=0;outlineConnect=0;portConstraint=eastwest;newEdgeStyle={&quot;edgeStyle&quot;:&quot;elbowEdgeStyle&quot;,&quot;elbow&quot;:&quot;vertical&quot;,&quot;curved&quot;:0,&quot;rounded&quot;:0};" parent="1" vertex="1">
          <mxGeometry x="481" y="80" width="100" height="1160" as="geometry" />
        </mxCell>
        <mxCell id="RyUc-nNFsBbxNnoOOYAe-5" value="DB" style="shape=umlLifeline;perimeter=lifelinePerimeter;whiteSpace=wrap;html=1;container=0;dropTarget=0;collapsible=0;recursiveResize=0;outlineConnect=0;portConstraint=eastwest;newEdgeStyle={&quot;edgeStyle&quot;:&quot;elbowEdgeStyle&quot;,&quot;elbow&quot;:&quot;vertical&quot;,&quot;curved&quot;:0,&quot;rounded&quot;:0};" parent="1" vertex="1">
          <mxGeometry x="691" y="80" width="100" height="1160" as="geometry" />
        </mxCell>
        <mxCell id="RyUc-nNFsBbxNnoOOYAe-7" value="&lt;font style=&quot;vertical-align: inherit;&quot;&gt;&lt;font style=&quot;vertical-align: inherit;&quot;&gt;파일 업로드&lt;/font&gt;&lt;/font&gt;" style="text;strokeColor=none;fillColor=none;html=1;fontSize=24;fontStyle=1;verticalAlign=middle;align=center;" parent="1" vertex="1">
          <mxGeometry x="375" width="100" height="40" as="geometry" />
        </mxCell>
        <mxCell id="RyUc-nNFsBbxNnoOOYAe-33" value="2. 업로드 파일명 목록 표시" style="html=1;verticalAlign=bottom;endArrow=open;dashed=1;endSize=8;edgeStyle=elbowEdgeStyle;elbow=horizontal;curved=0;rounded=0;" parent="1" edge="1">
          <mxGeometry relative="1" as="geometry">
            <mxPoint x="110" y="210" as="targetPoint" />
            <Array as="points">
              <mxPoint x="245" y="210" />
            </Array>
            <mxPoint x="320" y="210" as="sourcePoint" />
          </mxGeometry>
        </mxCell>
        <mxCell id="RyUc-nNFsBbxNnoOOYAe-34" value="3. &amp;lt;작업&amp;gt; 버튼 클릭" style="html=1;verticalAlign=bottom;endArrow=block;edgeStyle=elbowEdgeStyle;elbow=vertical;curved=0;rounded=0;" parent="1" edge="1">
          <mxGeometry relative="1" as="geometry">
            <mxPoint x="110" y="239" as="sourcePoint" />
            <Array as="points">
              <mxPoint x="228" y="239" />
            </Array>
            <mxPoint x="319" y="239" as="targetPoint" />
          </mxGeometry>
        </mxCell>
        <mxCell id="RyUc-nNFsBbxNnoOOYAe-35" value="&lt;font style=&quot;vertical-align: inherit;&quot;&gt;&lt;font style=&quot;vertical-align: inherit;&quot;&gt;&lt;font style=&quot;vertical-align: inherit;&quot;&gt;&lt;font style=&quot;vertical-align: inherit;&quot;&gt;3.1. &lt;/font&gt;&lt;font style=&quot;vertical-align: inherit;&quot;&gt;파일 전송&lt;/font&gt;&lt;/font&gt;&lt;/font&gt;&lt;/font&gt;" style="html=1;verticalAlign=bottom;endArrow=block;edgeStyle=elbowEdgeStyle;elbow=horizontal;curved=0;rounded=0;" parent="1" edge="1">
          <mxGeometry relative="1" as="geometry">
            <mxPoint x="320.5" y="269" as="sourcePoint" />
            <Array as="points">
              <mxPoint x="438.5" y="269" />
            </Array>
            <mxPoint x="529.5" y="269" as="targetPoint" />
          </mxGeometry>
        </mxCell>
        <mxCell id="g65fZ1rxTLcFzkX4ovNI-1" value="&lt;font style=&quot;vertical-align: inherit;&quot;&gt;&lt;font style=&quot;vertical-align: inherit;&quot;&gt;3.1.1. 지문 유무 식별&lt;/font&gt;&lt;/font&gt;" style="html=1;align=left;spacingLeft=2;endArrow=block;rounded=0;edgeStyle=orthogonalEdgeStyle;curved=0;rounded=0;" parent="1" edge="1">
          <mxGeometry relative="1" as="geometry">
            <mxPoint x="530" y="298" as="sourcePoint" />
            <Array as="points">
              <mxPoint x="530" y="298" />
              <mxPoint x="566" y="298" />
              <mxPoint x="566" y="348" />
            </Array>
            <mxPoint x="530" y="348" as="targetPoint" />
            <mxPoint as="offset" />
          </mxGeometry>
        </mxCell>
        <mxCell id="g65fZ1rxTLcFzkX4ovNI-2" value="&lt;font style=&quot;vertical-align: inherit;&quot;&gt;&lt;font style=&quot;vertical-align: inherit;&quot;&gt;3.1.2. 지문 후처리&lt;/font&gt;&lt;/font&gt;" style="html=1;align=left;spacingLeft=2;endArrow=block;rounded=0;edgeStyle=orthogonalEdgeStyle;curved=0;rounded=0;" parent="1" edge="1">
          <mxGeometry relative="1" as="geometry">
            <mxPoint x="530" y="408" as="sourcePoint" />
            <Array as="points">
              <mxPoint x="530" y="408" />
              <mxPoint x="566" y="408" />
              <mxPoint x="566" y="458" />
            </Array>
            <mxPoint x="530" y="458" as="targetPoint" />
            <mxPoint as="offset" />
          </mxGeometry>
        </mxCell>
        <mxCell id="3nk5honFaJ0HDdV0ffEX-1" value="&lt;font style=&quot;vertical-align: inherit;&quot;&gt;&lt;font style=&quot;vertical-align: inherit;&quot;&gt;&lt;font style=&quot;vertical-align: inherit;&quot;&gt;&lt;font style=&quot;vertical-align: inherit;&quot;&gt;3.1.3. 이미지&amp;nbsp;&lt;/font&gt;&lt;font style=&quot;vertical-align: inherit;&quot;&gt;파일만 전송&lt;/font&gt;&lt;/font&gt;&lt;/font&gt;&lt;/font&gt;" style="html=1;verticalAlign=bottom;endArrow=block;edgeStyle=elbowEdgeStyle;elbow=horizontal;curved=0;rounded=0;" parent="1" edge="1">
          <mxGeometry relative="1" as="geometry">
            <mxPoint x="530" y="489" as="sourcePoint" />
            <Array as="points">
              <mxPoint x="648" y="489" />
            </Array>
            <mxPoint x="739" y="489" as="targetPoint" />
          </mxGeometry>
        </mxCell>
        <mxCell id="3nk5honFaJ0HDdV0ffEX-2" value="3.1.1.1. &lt;br&gt;이미지 &lt;br&gt;파일 저장" style="html=1;align=left;spacingLeft=2;endArrow=block;rounded=0;edgeStyle=orthogonalEdgeStyle;curved=0;rounded=0;" parent="1" edge="1">
          <mxGeometry x="-0.0027" relative="1" as="geometry">
            <mxPoint x="740" y="519" as="sourcePoint" />
            <Array as="points">
              <mxPoint x="740" y="519" />
              <mxPoint x="776" y="519" />
              <mxPoint x="776" y="569" />
            </Array>
            <mxPoint x="740" y="569" as="targetPoint" />
            <mxPoint as="offset" />
          </mxGeometry>
        </mxCell>
        <mxCell id="3nk5honFaJ0HDdV0ffEX-3" value="3.3. 해당 결과값 표시 및&lt;br&gt;다운로드 &amp;amp; 이메일 전송 기능" style="html=1;verticalAlign=bottom;endArrow=open;dashed=1;endSize=8;edgeStyle=elbowEdgeStyle;elbow=vertical;curved=0;rounded=0;" parent="1" target="RyUc-nNFsBbxNnoOOYAe-1" edge="1">
          <mxGeometry relative="1" as="geometry">
            <mxPoint x="160" y="898" as="targetPoint" />
            <Array as="points">
              <mxPoint x="210" y="898" />
            </Array>
            <mxPoint x="319.5000000000002" y="893.0526315789475" as="sourcePoint" />
          </mxGeometry>
        </mxCell>
        <mxCell id="3nk5honFaJ0HDdV0ffEX-4" value="3.2. 파일명 처리 후 파일 전송" style="html=1;verticalAlign=bottom;endArrow=open;dashed=1;endSize=8;edgeStyle=elbowEdgeStyle;elbow=horizontal;curved=0;rounded=0;" parent="1" edge="1">
          <mxGeometry relative="1" as="geometry">
            <mxPoint x="320" y="659" as="targetPoint" />
            <Array as="points">
              <mxPoint x="455" y="659" />
            </Array>
            <mxPoint x="530" y="659" as="sourcePoint" />
          </mxGeometry>
        </mxCell>
        <mxCell id="3nk5honFaJ0HDdV0ffEX-12" value="alt" style="shape=umlFrame;whiteSpace=wrap;html=1;pointerEvents=0;" parent="1" vertex="1">
          <mxGeometry x="80" y="378" width="758" height="462" as="geometry" />
        </mxCell>
        <mxCell id="3nk5honFaJ0HDdV0ffEX-13" value="지문 존재" style="text;html=1;strokeColor=none;fillColor=none;align=center;verticalAlign=middle;whiteSpace=wrap;rounded=0;" parent="1" vertex="1">
          <mxGeometry x="140" y="378" width="60" height="30" as="geometry" />
        </mxCell>
        <mxCell id="3nk5honFaJ0HDdV0ffEX-15" value="alt" style="shape=umlFrame;whiteSpace=wrap;html=1;pointerEvents=0;" parent="1" vertex="1">
          <mxGeometry x="290" y="599" width="270" height="91" as="geometry" />
        </mxCell>
        <mxCell id="3nk5honFaJ0HDdV0ffEX-16" value="&amp;nbsp; [사진 or 영상 파일 == 1]" style="text;html=1;strokeColor=none;fillColor=none;align=left;verticalAlign=middle;whiteSpace=wrap;rounded=0;" parent="1" vertex="1">
          <mxGeometry x="353.5" y="599" width="188" height="30" as="geometry" />
        </mxCell>
        <mxCell id="3nk5honFaJ0HDdV0ffEX-18" value="3.2. 압축 파일로 묶어 전송" style="html=1;verticalAlign=bottom;endArrow=open;dashed=1;endSize=8;edgeStyle=elbowEdgeStyle;elbow=horizontal;curved=0;rounded=0;" parent="1" edge="1">
          <mxGeometry relative="1" as="geometry">
            <mxPoint x="321" y="780" as="targetPoint" />
            <Array as="points">
              <mxPoint x="456" y="780" />
            </Array>
            <mxPoint x="531" y="780" as="sourcePoint" />
          </mxGeometry>
        </mxCell>
        <mxCell id="3nk5honFaJ0HDdV0ffEX-19" value="alt" style="shape=umlFrame;whiteSpace=wrap;html=1;pointerEvents=0;" parent="1" vertex="1">
          <mxGeometry x="290" y="720" width="270" height="90" as="geometry" />
        </mxCell>
        <mxCell id="3nk5honFaJ0HDdV0ffEX-20" value="&amp;nbsp; [사진 파일 &amp;gt;= 2]" style="text;html=1;strokeColor=none;fillColor=none;align=left;verticalAlign=middle;whiteSpace=wrap;rounded=0;" parent="1" vertex="1">
          <mxGeometry x="356.5" y="720" width="188" height="30" as="geometry" />
        </mxCell>
      </root>
    </mxGraphModel>
  </diagram>
</mxfile>
